<svg width="400" height="412" viewBox="0 0 400 412" fill="none" xmlns="http://www.w3.org/2000/svg">
<path d="M33.8564 234C25.9966 220.386 25.9966 203.614 33.8564 190L97.8756 79.1154C105.735 65.5017 120.261 57.1154 135.981 57.1154H264.019C279.739 57.1154 294.265 65.5018 302.124 79.1154L366.144 190C374.003 203.614 374.003 220.386 366.144 234L302.124 344.885C294.265 358.498 279.739 366.885 264.019 366.885H135.981C120.261 366.885 105.735 358.498 97.8756 344.885L33.8564 234Z" stroke="#D9D9D9" stroke-width="2"/>
<path d="M13.8564 234C5.99656 220.386 5.99656 203.614 13.8564 190L87.8756 61.7949C95.7355 48.1812 110.261 39.7949 125.981 39.7949H274.019C289.739 39.7949 304.265 48.1813 312.124 61.7949L386.144 190C394.003 203.614 394.003 220.386 386.144 234L312.124 362.205C304.265 375.819 289.739 384.205 274.019 384.205H125.981C110.261 384.205 95.7355 375.819 87.8756 362.205L13.8564 234Z" stroke="#D9D9D9" stroke-width="2"/>
<path d="M178 33.8564C191.614 25.9966 208.386 25.9966 222 33.8564L332.885 97.8756C346.498 105.735 354.885 120.261 354.885 135.981V264.019C354.885 279.739 346.498 294.265 332.885 302.124L222 366.144C208.386 374.003 191.614 374.003 178 366.144L67.1154 302.124C53.5018 294.265 45.1154 279.739 45.1154 264.019V135.981C45.1154 120.261 53.5018 105.735 67.1154 97.8756L178 33.8564Z" stroke="#D9D9D9" stroke-width="2"/>
<path d="M178 13.8564C191.614 5.99656 208.386 5.99656 222 13.8564L350.205 87.8756C363.819 95.7355 372.205 110.261 372.205 125.981V274.019C372.205 289.739 363.819 304.265 350.205 312.124L222 386.144C208.386 394.003 191.614 394.003 178 386.144L49.7949 312.124C36.1813 304.265 27.7949 289.739 27.7949 274.019V125.981C27.7949 110.261 36.1813 95.7355 49.7949 87.8756L178 13.8564Z" stroke="#D9D9D9" stroke-width="2"/>
</svg>
